# xmcd
#
# Track frame offsets: 
#        150
#        19946
#        36936
#        54283
#        72781
#        87193
#        102808
#        117348
#        138378
#        157796
#        176008
#        193663
#        216766
#        237456
#
# Disc length: 3472 seconds
#
# Revision: 1
# Processed by: cddbd v1.5.2PL0 Copyright (c) Steve Scherf et al.
# Submitted via: ExactAudioCopy v0.99pb4
#
DISCID=ba0d8e0e
DTITLE=The Peter Malick Group - Chance and Circumstance
DYEAR=2003
DGENRE=Jazz
TTITLE0=Immigrant (Feat Jess Klein)
TTITLE1=Chance and Circumstance (Feat Kirsten Proffit)
TTITLE2=Opium (Feat Antje Duvekot)
TTITLE3=Strange Transmissions (Feat Norah Jones)
TTITLE4=Things You Don't Have To Do (Feat Norah Jones)
TTITLE5=Lighten Me (Feat Mercy Malick)
TTITLE6=What Would I Do Without You (Feat Mercy Malick)
TTITLE7=Midsize City Girl (Feat Jess Klein)
TTITLE8=Deceptively Yours (Feat Norah Jones)
TTITLE9=Into The City (Feat Antje Duvekot)
TTITLE10=Whatever That Means (Feat Kirsten Proffit)
TTITLE11=Heart Of Mine (Feat Norah Jones)
TTITLE12=All Your Love (Feat Norah Jones)
TTITLE13=NewYork City (Feat Norah Jones)
EXTD=YEAR: 2003
EXTT0=
EXTT1=
EXTT2=
EXTT3=
EXTT4=
EXTT5=
EXTT6=
EXTT7=
EXTT8=
EXTT9=
EXTT10=
EXTT11=
EXTT12=
EXTT13=
PLAYORDER=
